<svg width="41" height="37" viewBox="0 0 41 37" fill="none" xmlns="http://www.w3.org/2000/svg">
<path d="M20.1469 36L0.5 30.4834L9.28186 17.3047L20.1469 1L31.4024 17.3047L40.5 30.4834L20.1469 36Z" fill="url(#paint0_linear_192_12)"/>
<path d="M0.5 30.4834L20.1469 36M0.5 30.4834L9.28186 17.3047M0.5 30.4834L14.7144 26.6524M20.1469 1L9.28186 17.3047M20.1469 1L31.4024 17.3047M20.1469 1V15.7723M20.1469 36L40.5 30.4834M20.1469 36V18.5M20.1469 36L14.7144 26.6524M20.1469 36L25.7747 26.6524M40.5 30.4834L31.4024 17.3047M40.5 30.4834L25.7747 26.6524M9.28186 17.3047L20.1469 18.5M9.28186 17.3047L14.7144 26.6524M9.28186 17.3047L20.1469 15.7723M31.4024 17.3047L20.1469 18.5M31.4024 17.3047L25.7747 26.6524M31.4024 17.3047L20.1469 15.7723M20.1469 18.5V15.7723" stroke="#FAFAFA" stroke-width="0.2"/>
<defs>
<linearGradient id="paint0_linear_192_12" x1="20.5" y1="1" x2="20.5" y2="36" gradientUnits="userSpaceOnUse">
<stop stop-color="#1E0094"/>
<stop offset="1" stop-color="#EAF4FF"/>
</linearGradient>
</defs>
</svg>
